# xmcd
#
# Track frame offsets: 
#        150
#        17590
#        40715
#        56802
#        76211
#        105769
#        124659
#        139122
#        157558
#        180337
#        205914
#        227266
#
# Disc length: 3423 seconds
#
# Revision: 2
# Processed by: cddbd v1.5.2PL0 Copyright (c) Steve Scherf et al.
# Submitted via: ExactAudioCopy v0.90b4
#
DISCID=7d0d5d0c
DTITLE=Ultima Thule - Ultima Thule
DYEAR=1998
DGENRE=Progressive Rock
TTITLE0=Turbatuli
TTITLE1=Tuulemeelne
TTITLE2=Kassitapp
TTITLE3=Kuutöbiste Tants
TTITLE4=Aed
TTITLE5=Muuseas
TTITLE6=Kakskeelne
TTITLE7=Ilmtingimata
TTITLE8=Hallaöö
TTITLE9=Laulev Jögi
TTITLE10=Vägev Vähk
TTITLE11=Videvik
EXTD=An Estonian r&b band.
EXTT0=
EXTT1=
EXTT2=
EXTT3=
EXTT4=
EXTT5=
EXTT6=
EXTT7=
EXTT8=
EXTT9=
EXTT10=
EXTT11=
PLAYORDER=
